<svg xmlns="http://www.w3.org/2000/svg" xmlns:xlink="http://www.w3.org/1999/xlink" version="1.1" class="marks" width="864" height="451" viewBox="0 0 864 451"><rect width="864" height="451" fill="white"/><g fill="none" stroke-miterlimit="4" transform="translate(60,31)"><g class="mark-group role-frame root" role="graphics-object" aria-roledescription="group mark container"><g transform="translate(0,0)"><path class="background" aria-hidden="true" d="M0.5,0.5h620v380h-620Z"/><g><g class="mark-group role-axis" aria-hidden="true"><g transform="translate(0.5,380.5)"><path class="background" aria-hidden="true" d="M0,0h0v0h0Z" pointer-events="none"/><g><g class="mark-rule role-axis-grid" pointer-events="none"><line transform="translate(0,-380)" x2="0" y2="380" stroke="#ddd" stroke-width="1" opacity="1"/><line transform="translate(103,-380)" x2="0" y2="380" stroke="#ddd" stroke-width="1" opacity="1"/><line transform="translate(207,-380)" x2="0" y2="380" stroke="#ddd" stroke-width="1" opacity="1"/><line transform="translate(310,-380)" x2="0" y2="380" stroke="#ddd" stroke-width="1" opacity="1"/><line transform="translate(413,-380)" x2="0" y2="380" stroke="#ddd" stroke-width="1" opacity="1"/><line transform="translate(517,-380)" x2="0" y2="380" stroke="#ddd" stroke-width="1" opacity="1"/><line transform="translate(620,-380)" x2="0" y2="380" stroke="#ddd" stroke-width="1" opacity="1"/></g></g><path class="foreground" aria-hidden="true" d="" pointer-events="none" display="none"/></g></g><g class="mark-group role-axis" aria-hidden="true"><g transform="translate(0.5,0.5)"><path class="background" aria-hidden="true" d="M0,0h0v0h0Z" pointer-events="none"/><g><g class="mark-rule role-axis-grid" pointer-events="none"><line transform="translate(0,380)" x2="620" y2="0" stroke="#ddd" stroke-width="1" opacity="1"/><line transform="translate(0,338)" x2="620" y2="0" stroke="#ddd" stroke-width="1" opacity="1"/><line transform="translate(0,296)" x2="620" y2="0" stroke="#ddd" stroke-width="1" opacity="1"/><line transform="translate(0,253)" x2="620" y2="0" stroke="#ddd" stroke-width="1" opacity="1"/><line transform="translate(0,211)" x2="620" y2="0" stroke="#ddd" stroke-width="1" opacity="1"/><line transform="translate(0,169)" x2="620" y2="0" stroke="#ddd" stroke-width="1" opacity="1"/><line transform="translate(0,127)" x2="620" y2="0" stroke="#ddd" stroke-width="1" opacity="1"/><line transform="translate(0,84)" x2="620" y2="0" stroke="#ddd" stroke-width="1" opacity="1"/><line transform="translate(0,42)" x2="620" y2="0" stroke="#ddd" stroke-width="1" opacity="1"/><line transform="translate(0,0)" x2="620" y2="0" stroke="#ddd" stroke-width="1" opacity="1"/></g></g><path class="foreground" aria-hidden="true" d="" pointer-events="none" display="none"/></g></g><g class="mark-group role-axis" role="graphics-symbol" aria-roledescription="axis" aria-label="X-axis titled 'concorrência (promises ou workers)' for a log scale with values from 1 to 64"><g transform="translate(0.5,380.5)"><path class="background" aria-hidden="true" d="M0,0h0v0h0Z" pointer-events="none"/><g><g class="mark-rule role-axis-tick" pointer-events="none"><line transform="translate(0,0)" x2="0" y2="5" stroke="#888" stroke-width="1" opacity="1"/><line transform="translate(103,0)" x2="0" y2="5" stroke="#888" stroke-width="1" opacity="1"/><line transform="translate(207,0)" x2="0" y2="5" stroke="#888" stroke-width="1" opacity="1"/><line transform="translate(310,0)" x2="0" y2="5" stroke="#888" stroke-width="1" opacity="1"/><line transform="translate(413,0)" x2="0" y2="5" stroke="#888" stroke-width="1" opacity="1"/><line transform="translate(517,0)" x2="0" y2="5" stroke="#888" stroke-width="1" opacity="1"/><line transform="translate(620,0)" x2="0" y2="5" stroke="#888" stroke-width="1" opacity="1"/></g><g class="mark-text role-axis-label" pointer-events="none"><text text-anchor="start" transform="translate(0,16)" font-family="sans-serif" font-size="12px" fill="#000" opacity="1">1</text><text text-anchor="middle" transform="translate(103.33333333333334,16)" font-family="sans-serif" font-size="12px" fill="#000" opacity="1">2</text><text text-anchor="middle" transform="translate(206.66666666666669,16)" font-family="sans-serif" font-size="12px" fill="#000" opacity="1">4</text><text text-anchor="middle" transform="translate(310,16)" font-family="sans-serif" font-size="12px" fill="#000" opacity="1">8</text><text text-anchor="middle" transform="translate(413.33333333333337,16)" font-family="sans-serif" font-size="12px" fill="#000" opacity="1">16</text><text text-anchor="middle" transform="translate(516.6666666666667,16)" font-family="sans-serif" font-size="12px" fill="#000" opacity="1">32</text><text text-anchor="end" transform="translate(620,16)" font-family="sans-serif" font-size="12px" fill="#000" opacity="1">64</text></g><g class="mark-rule role-axis-domain" pointer-events="none"><line transform="translate(0,0)" x2="620" y2="0" stroke="#888" stroke-width="1" opacity="1"/></g><g class="mark-text role-axis-title" pointer-events="none"><text text-anchor="middle" transform="translate(310,32)" font-family="sans-serif" font-size="13px" font-weight="bold" fill="#000" opacity="1">concorrência (promises ou workers)</text></g></g><path class="foreground" aria-hidden="true" d="" pointer-events="none" display="none"/></g></g><g class="mark-group role-axis" role="graphics-symbol" aria-roledescription="axis" aria-label="Y-axis titled 'operações por segundo' for a linear scale with values from 0 to 4,500"><g transform="translate(0.5,0.5)"><path class="background" aria-hidden="true" d="M0,0h0v0h0Z" pointer-events="none"/><g><g class="mark-rule role-axis-tick" pointer-events="none"><line transform="translate(0,380)" x2="-5" y2="0" stroke="#888" stroke-width="1" opacity="1"/><line transform="translate(0,338)" x2="-5" y2="0" stroke="#888" stroke-width="1" opacity="1"/><line transform="translate(0,296)" x2="-5" y2="0" stroke="#888" stroke-width="1" opacity="1"/><line transform="translate(0,253)" x2="-5" y2="0" stroke="#888" stroke-width="1" opacity="1"/><line transform="translate(0,211)" x2="-5" y2="0" stroke="#888" stroke-width="1" opacity="1"/><line transform="translate(0,169)" x2="-5" y2="0" stroke="#888" stroke-width="1" opacity="1"/><line transform="translate(0,127)" x2="-5" y2="0" stroke="#888" stroke-width="1" opacity="1"/><line transform="translate(0,84)" x2="-5" y2="0" stroke="#888" stroke-width="1" opacity="1"/><line transform="translate(0,42)" x2="-5" y2="0" stroke="#888" stroke-width="1" opacity="1"/><line transform="translate(0,0)" x2="-5" y2="0" stroke="#888" stroke-width="1" opacity="1"/></g><g class="mark-text role-axis-label" pointer-events="none"><text text-anchor="end" transform="translate(-7,384)" font-family="sans-serif" font-size="12px" fill="#000" opacity="1">0</text><text text-anchor="end" transform="translate(-7,341.77777777777777)" font-family="sans-serif" font-size="12px" fill="#000" opacity="1">500</text><text text-anchor="end" transform="translate(-7,299.55555555555554)" font-family="sans-serif" font-size="12px" fill="#000" opacity="1">1,000</text><text text-anchor="end" transform="translate(-7,257.33333333333337)" font-family="sans-serif" font-size="12px" fill="#000" opacity="1">1,500</text><text text-anchor="end" transform="translate(-7,215.11111111111111)" font-family="sans-serif" font-size="12px" fill="#000" opacity="1">2,000</text><text text-anchor="end" transform="translate(-7,172.88888888888889)" font-family="sans-serif" font-size="12px" fill="#000" opacity="1">2,500</text><text text-anchor="end" transform="translate(-7,130.66666666666669)" font-family="sans-serif" font-size="12px" fill="#000" opacity="1">3,000</text><text text-anchor="end" transform="translate(-7,88.44444444444444)" font-family="sans-serif" font-size="12px" fill="#000" opacity="1">3,500</text><text text-anchor="end" transform="translate(-7,46.22222222222224)" font-family="sans-serif" font-size="12px" fill="#000" opacity="1">4,000</text><text text-anchor="end" transform="translate(-7,4)" font-family="sans-serif" font-size="12px" fill="#000" opacity="1">4,500</text></g><g class="mark-rule role-axis-domain" pointer-events="none"><line transform="translate(0,380)" x2="0" y2="-380" stroke="#888" stroke-width="1" opacity="1"/></g><g class="mark-text role-axis-title" pointer-events="none"><text text-anchor="middle" transform="translate(-41.029296875,190) rotate(-90) translate(0,-3)" font-family="sans-serif" font-size="13px" font-weight="bold" fill="#000" opacity="1">operações por segundo</text></g></g><path class="foreground" aria-hidden="true" d="" pointer-events="none" display="none"/></g></g><g class="mark-group role-scope layer_0_pathgroup" role="graphics-object" aria-roledescription="group mark container"><g transform="translate(0,0)"><path class="background" aria-hidden="true" d="M0,0h620v380h-620Z"/><g><g class="mark-line role-mark layer_0_marks" role="graphics-object" aria-roledescription="line mark container"><path aria-label="concorrencia: 1; Mean of throughput: 2314.5856; cenario: 01 sequencial" role="graphics-symbol" aria-roledescription="line mark" d="M0,184.546Z" stroke="#4c78a8" stroke-width="2"/></g></g><path class="foreground" aria-hidden="true" d="" display="none"/></g><g transform="translate(0,0)"><path class="background" aria-hidden="true" d="M0,0h620v380h-620Z"/><g><g class="mark-line role-mark layer_0_marks" role="graphics-object" aria-roledescription="line mark container"><path aria-label="concorrencia: 1; Mean of throughput: 2391.3722; cenario: 02 corrida sem thread" role="graphics-symbol" aria-roledescription="line mark" d="M0,178.062L103.333,54.023L206.667,34.088L310,84.456L413.333,138.906L516.667,179.686L620,212.27" stroke="#f58518" stroke-width="2"/></g></g><path class="foreground" aria-hidden="true" d="" display="none"/></g><g transform="translate(0,0)"><path class="background" aria-hidden="true" d="M0,0h620v380h-620Z"/><g><g class="mark-line role-mark layer_0_marks" role="graphics-object" aria-roledescription="line mark container"><path aria-label="concorrencia: 11; Mean of throughput: 24.6535; cenario: 03 promise órfã" role="graphics-symbol" aria-roledescription="line mark" d="M357.475,377.918Z" stroke="#e45756" stroke-width="2"/></g></g><path class="foreground" aria-hidden="true" d="" display="none"/></g><g transform="translate(0,0)"><path class="background" aria-hidden="true" d="M0,0h620v380h-620Z"/><g><g class="mark-line role-mark layer_0_marks" role="graphics-object" aria-roledescription="line mark container"><path aria-label="concorrencia: 1; Mean of throughput: 210.0264; cenario: 05 conexão compartilhada" role="graphics-symbol" aria-roledescription="line mark" d="M0,362.264L103.333,360.671L206.667,360.755L310,360.359L413.333,359.739L516.667,359.891" stroke="#72b7b2" stroke-width="2"/></g></g><path class="foreground" aria-hidden="true" d="" display="none"/></g><g transform="translate(0,0)"><path class="background" aria-hidden="true" d="M0,0h620v380h-620Z"/><g><g class="mark-line role-mark layer_0_marks" role="graphics-object" aria-roledescription="line mark container"><path aria-label="concorrencia: 1; Mean of throughput: 1305.8537; cenario: 08 saque em workers" role="graphics-symbol" aria-roledescription="line mark" d="M0,269.728L103.333,241.773L206.667,256.908L310,287.294L413.333,324.416" stroke="#54a24b" stroke-width="2"/></g></g><path class="foreground" aria-hidden="true" d="" display="none"/></g><g transform="translate(0,0)"><path class="background" aria-hidden="true" d="M0,0h620v380h-620Z"/><g><g class="mark-line role-mark layer_0_marks" role="graphics-object" aria-roledescription="line mark container"><path aria-label="concorrencia: 2; Mean of throughput: 4.2022; cenario: 09 deadlock" role="graphics-symbol" aria-roledescription="line mark" d="M103.333,379.645L206.667,379.696L310,379.83" stroke="#eeca3b" stroke-width="2"/></g></g><path class="foreground" aria-hidden="true" d="" display="none"/></g><g transform="translate(0,0)"><path class="background" aria-hidden="true" d="M0,0h620v380h-620Z"/><g><g class="mark-line role-mark layer_0_marks" role="graphics-object" aria-roledescription="line mark container"><path aria-label="concorrencia: 2; Mean of throughput: 95.8119; cenario: 10 leitura suja" role="graphics-symbol" aria-roledescription="line mark" d="M103.333,371.909L239.933,365.572" stroke="#b279a2" stroke-width="2"/></g></g><path class="foreground" aria-hidden="true" d="" display="none"/></g><g transform="translate(0,0)"><path class="background" aria-hidden="true" d="M0,0h620v380h-620Z"/><g><g class="mark-line role-mark layer_0_marks" role="graphics-object" aria-roledescription="line mark container"><path aria-label="concorrencia: 2; Mean of throughput: 3789.2811; cenario: 11 heisenbug sem log" role="graphics-symbol" aria-roledescription="line mark" d="M103.333,60.016L206.667,36.034L310,58.955L413.333,121.498L516.667,149.822" stroke="#9d755d" stroke-width="2"/></g></g><path class="foreground" aria-hidden="true" d="" display="none"/></g><g transform="translate(0,0)"><path class="background" aria-hidden="true" d="M0,0h620v380h-620Z"/><g><g class="mark-line role-mark layer_0_marks" role="graphics-object" aria-roledescription="line mark container"><path aria-label="concorrencia: 2; Mean of throughput: 3713.0589; cenario: 11 heisenbug com log" role="graphics-symbol" aria-roledescription="line mark" d="M103.333,66.453L206.667,19.616L310,60.662L413.333,122.889L516.667,147.383" stroke="#ff9da6" stroke-width="2"/></g></g><path class="foreground" aria-hidden="true" d="" display="none"/></g></g><g class="mark-symbol role-mark layer_1_marks" role="graphics-object" aria-roledescription="symbol mark container"><path aria-label="concorrencia: 1; Mean of throughput: 2314.5856; cenario: 01 sequencial" role="graphics-symbol" aria-roledescription="point" transform="translate(0,184.5461048888889)" d="M2.739,0A2.739,2.739,0,1,1,-2.739,0A2.739,2.739,0,1,1,2.739,0" fill="#4c78a8" stroke-width="2" opacity="1"/><path aria-label="concorrencia: 1; Mean of throughput: 2391.3722; cenario: 02 corrida sem thread" role="graphics-symbol" aria-roledescription="point" transform="translate(0,178.06190311111115)" d="M2.739,0A2.739,2.739,0,1,1,-2.739,0A2.739,2.739,0,1,1,2.739,0" fill="#f58518" stroke-width="2" opacity="1"/><path aria-label="concorrencia: 2; Mean of throughput: 3860.2505; cenario: 02 corrida sem thread" role="graphics-symbol" aria-roledescription="point" transform="translate(103.33333333333334,54.02329111111112)" d="M2.739,0A2.739,2.739,0,1,1,-2.739,0A2.739,2.739,0,1,1,2.739,0" fill="#f58518" stroke-width="2" opacity="1"/><path aria-label="concorrencia: 4; Mean of throughput: 4096.3293; cenario: 02 corrida sem thread" role="graphics-symbol" aria-roledescription="point" transform="translate(206.66666666666669,34.08774799999997)" d="M2.739,0A2.739,2.739,0,1,1,-2.739,0A2.739,2.739,0,1,1,2.739,0" fill="#f58518" stroke-width="2" opacity="1"/><path aria-label="concorrencia: 8; Mean of throughput: 3499.8633; cenario: 02 corrida sem thread" role="graphics-symbol" aria-roledescription="point" transform="translate(310,84.455988)" d="M2.739,0A2.739,2.739,0,1,1,-2.739,0A2.739,2.739,0,1,1,2.739,0" fill="#f58518" stroke-width="2" opacity="1"/><path aria-label="concorrencia: 16; Mean of throughput: 2855.0579; cenario: 02 corrida sem thread" role="graphics-symbol" aria-roledescription="point" transform="translate(413.33333333333337,138.9062217777778)" d="M2.739,0A2.739,2.739,0,1,1,-2.739,0A2.739,2.739,0,1,1,2.739,0" fill="#f58518" stroke-width="2" opacity="1"/><path aria-label="concorrencia: 32; Mean of throughput: 2372.1435; cenario: 02 corrida sem thread" role="graphics-symbol" aria-roledescription="point" transform="translate(516.6666666666667,179.68565999999998)" d="M2.739,0A2.739,2.739,0,1,1,-2.739,0A2.739,2.739,0,1,1,2.739,0" fill="#f58518" stroke-width="2" opacity="1"/><path aria-label="concorrencia: 64; Mean of throughput: 1986.2754; cenario: 02 corrida sem thread" role="graphics-symbol" aria-roledescription="point" transform="translate(620,212.27007733333332)" d="M2.739,0A2.739,2.739,0,1,1,-2.739,0A2.739,2.739,0,1,1,2.739,0" fill="#f58518" stroke-width="2" opacity="1"/><path aria-label="concorrencia: 11; Mean of throughput: 24.6535; cenario: 03 promise órfã" role="graphics-symbol" aria-roledescription="point" transform="translate(357.47460059252074,377.9181488888889)" d="M2.739,0A2.739,2.739,0,1,1,-2.739,0A2.739,2.739,0,1,1,2.739,0" fill="#e45756" stroke-width="2" opacity="1"/><path aria-label="concorrencia: 1; Mean of throughput: 210.0264; cenario: 05 conexão compartilhada" role="graphics-symbol" aria-roledescription="point" transform="translate(0,362.2644373333333)" d="M2.739,0A2.739,2.739,0,1,1,-2.739,0A2.739,2.739,0,1,1,2.739,0" fill="#72b7b2" stroke-width="2" opacity="1"/><path aria-label="concorrencia: 2; Mean of throughput: 228.8996; cenario: 05 conexão compartilhada" role="graphics-symbol" aria-roledescription="point" transform="translate(103.33333333333334,360.67070044444444)" d="M2.739,0A2.739,2.739,0,1,1,-2.739,0A2.739,2.739,0,1,1,2.739,0" fill="#72b7b2" stroke-width="2" opacity="1"/><path aria-label="concorrencia: 4; Mean of throughput: 227.898; cenario: 05 conexão compartilhada" role="graphics-symbol" aria-roledescription="point" transform="translate(206.66666666666669,360.75527999999997)" d="M2.739,0A2.739,2.739,0,1,1,-2.739,0A2.739,2.739,0,1,1,2.739,0" fill="#72b7b2" stroke-width="2" opacity="1"/><path aria-label="concorrencia: 8; Mean of throughput: 232.5937; cenario: 05 conexão compartilhada" role="graphics-symbol" aria-roledescription="point" transform="translate(310,360.3587542222222)" d="M2.739,0A2.739,2.739,0,1,1,-2.739,0A2.739,2.739,0,1,1,2.739,0" fill="#72b7b2" stroke-width="2" opacity="1"/><path aria-label="concorrencia: 16; Mean of throughput: 239.9316; cenario: 05 conexão compartilhada" role="graphics-symbol" aria-roledescription="point" transform="translate(413.33333333333337,359.7391093333333)" d="M2.739,0A2.739,2.739,0,1,1,-2.739,0A2.739,2.739,0,1,1,2.739,0" fill="#72b7b2" stroke-width="2" opacity="1"/><path aria-label="concorrencia: 32; Mean of throughput: 238.1314; cenario: 05 conexão compartilhada" role="graphics-symbol" aria-roledescription="point" transform="translate(516.6666666666667,359.8911262222222)" d="M2.739,0A2.739,2.739,0,1,1,-2.739,0A2.739,2.739,0,1,1,2.739,0" fill="#72b7b2" stroke-width="2" opacity="1"/><path aria-label="concorrencia: 1; Mean of throughput: 1305.8537; cenario: 08 saque em workers" role="graphics-symbol" aria-roledescription="point" transform="translate(0,269.72790977777777)" d="M2.739,0A2.739,2.739,0,1,1,-2.739,0A2.739,2.739,0,1,1,2.739,0" fill="#54a24b" stroke-width="2" opacity="1"/><path aria-label="concorrencia: 2; Mean of throughput: 1636.9037; cenario: 08 saque em workers" role="graphics-symbol" aria-roledescription="point" transform="translate(103.33333333333334,241.77257644444447)" d="M2.739,0A2.739,2.739,0,1,1,-2.739,0A2.739,2.739,0,1,1,2.739,0" fill="#54a24b" stroke-width="2" opacity="1"/><path aria-label="concorrencia: 4; Mean of throughput: 1457.6676; cenario: 08 saque em workers" role="graphics-symbol" aria-roledescription="point" transform="translate(206.66666666666669,256.9080693333333)" d="M2.739,0A2.739,2.739,0,1,1,-2.739,0A2.739,2.739,0,1,1,2.739,0" fill="#54a24b" stroke-width="2" opacity="1"/><path aria-label="concorrencia: 8; Mean of throughput: 1097.8359; cenario: 08 saque em workers" role="graphics-symbol" aria-roledescription="point" transform="translate(310,287.29385733333334)" d="M2.739,0A2.739,2.739,0,1,1,-2.739,0A2.739,2.739,0,1,1,2.739,0" fill="#54a24b" stroke-width="2" opacity="1"/><path aria-label="concorrencia: 16; Mean of throughput: 658.2323; cenario: 08 saque em workers" role="graphics-symbol" aria-roledescription="point" transform="translate(413.33333333333337,324.41593911111113)" d="M2.739,0A2.739,2.739,0,1,1,-2.739,0A2.739,2.739,0,1,1,2.739,0" fill="#54a24b" stroke-width="2" opacity="1"/><path aria-label="concorrencia: 2; Mean of throughput: 4.2022; cenario: 09 deadlock" role="graphics-symbol" aria-roledescription="point" transform="translate(103.33333333333334,379.6451475555555)" d="M2.739,0A2.739,2.739,0,1,1,-2.739,0A2.739,2.739,0,1,1,2.739,0" fill="#eeca3b" stroke-width="2" opacity="1"/><path aria-label="concorrencia: 4; Mean of throughput: 3.5947; cenario: 09 deadlock" role="graphics-symbol" aria-roledescription="point" transform="translate(206.66666666666669,379.69644755555555)" d="M2.739,0A2.739,2.739,0,1,1,-2.739,0A2.739,2.739,0,1,1,2.739,0" fill="#eeca3b" stroke-width="2" opacity="1"/><path aria-label="concorrencia: 8; Mean of throughput: 2.0081; cenario: 09 deadlock" role="graphics-symbol" aria-roledescription="point" transform="translate(310,379.83042711111113)" d="M2.739,0A2.739,2.739,0,1,1,-2.739,0A2.739,2.739,0,1,1,2.739,0" fill="#eeca3b" stroke-width="2" opacity="1"/><path aria-label="concorrencia: 2; Mean of throughput: 95.8119; cenario: 10 leitura suja" role="graphics-symbol" aria-roledescription="point" transform="translate(103.33333333333334,371.90921733333334)" d="M2.739,0A2.739,2.739,0,1,1,-2.739,0A2.739,2.739,0,1,1,2.739,0" fill="#b279a2" stroke-width="2" opacity="1"/><path aria-label="concorrencia: 5; Mean of throughput: 170.8583; cenario: 10 leitura suja" role="graphics-symbol" aria-roledescription="point" transform="translate(239.93256980502744,365.5719657777778)" d="M2.739,0A2.739,2.739,0,1,1,-2.739,0A2.739,2.739,0,1,1,2.739,0" fill="#b279a2" stroke-width="2" opacity="1"/><path aria-label="concorrencia: 2; Mean of throughput: 3789.2811; cenario: 11 heisenbug sem log" role="graphics-symbol" aria-roledescription="point" transform="translate(103.33333333333334,60.01626266666664)" d="M2.739,0A2.739,2.739,0,1,1,-2.739,0A2.739,2.739,0,1,1,2.739,0" fill="#9d755d" stroke-width="2" opacity="1"/><path aria-label="concorrencia: 4; Mean of throughput: 4073.2865; cenario: 11 heisenbug sem log" role="graphics-symbol" aria-roledescription="point" transform="translate(206.66666666666669,36.033584444444486)" d="M2.739,0A2.739,2.739,0,1,1,-2.739,0A2.739,2.739,0,1,1,2.739,0" fill="#9d755d" stroke-width="2" opacity="1"/><path aria-label="concorrencia: 8; Mean of throughput: 3801.8459; cenario: 11 heisenbug sem log" role="graphics-symbol" aria-roledescription="point" transform="translate(310,58.95523511111114)" d="M2.739,0A2.739,2.739,0,1,1,-2.739,0A2.739,2.739,0,1,1,2.739,0" fill="#9d755d" stroke-width="2" opacity="1"/><path aria-label="concorrencia: 16; Mean of throughput: 3061.2043; cenario: 11 heisenbug sem log" role="graphics-symbol" aria-roledescription="point" transform="translate(413.33333333333337,121.49830355555558)" d="M2.739,0A2.739,2.739,0,1,1,-2.739,0A2.739,2.739,0,1,1,2.739,0" fill="#9d755d" stroke-width="2" opacity="1"/><path aria-label="concorrencia: 32; Mean of throughput: 2725.7905; cenario: 11 heisenbug sem log" role="graphics-symbol" aria-roledescription="point" transform="translate(516.6666666666667,149.82213555555558)" d="M2.739,0A2.739,2.739,0,1,1,-2.739,0A2.739,2.739,0,1,1,2.739,0" fill="#9d755d" stroke-width="2" opacity="1"/><path aria-label="concorrencia: 2; Mean of throughput: 3713.0589; cenario: 11 heisenbug com log" role="graphics-symbol" aria-roledescription="point" transform="translate(103.33333333333334,66.45280400000001)" d="M2.739,0A2.739,2.739,0,1,1,-2.739,0A2.739,2.739,0,1,1,2.739,0" fill="#ff9da6" stroke-width="2" opacity="1"/><path aria-label="concorrencia: 4; Mean of throughput: 4267.7088; cenario: 11 heisenbug com log" role="graphics-symbol" aria-roledescription="point" transform="translate(206.66666666666669,19.615701333333323)" d="M2.739,0A2.739,2.739,0,1,1,-2.739,0A2.739,2.739,0,1,1,2.739,0" fill="#ff9da6" stroke-width="2" opacity="1"/><path aria-label="concorrencia: 8; Mean of throughput: 3781.6392; cenario: 11 heisenbug com log" role="graphics-symbol" aria-roledescription="point" transform="translate(310,60.66157866666668)" d="M2.739,0A2.739,2.739,0,1,1,-2.739,0A2.739,2.739,0,1,1,2.739,0" fill="#ff9da6" stroke-width="2" opacity="1"/><path aria-label="concorrencia: 16; Mean of throughput: 3044.7389; cenario: 11 heisenbug com log" role="graphics-symbol" aria-roledescription="point" transform="translate(413.33333333333337,122.88871511111111)" d="M2.739,0A2.739,2.739,0,1,1,-2.739,0A2.739,2.739,0,1,1,2.739,0" fill="#ff9da6" stroke-width="2" opacity="1"/><path aria-label="concorrencia: 32; Mean of throughput: 2754.6743; cenario: 11 heisenbug com log" role="graphics-symbol" aria-roledescription="point" transform="translate(516.6666666666667,147.38305911111112)" d="M2.739,0A2.739,2.739,0,1,1,-2.739,0A2.739,2.739,0,1,1,2.739,0" fill="#ff9da6" stroke-width="2" opacity="1"/></g><g class="mark-group role-legend" role="graphics-symbol" aria-roledescription="legend" aria-label="Symbol legend titled 'cenário' for fill color and stroke color with 9 values: 01 sequencial, 02 corrida sem thread, 03 promise órfã, 05 conexão compartilhada, 08 saque em workers, ending with 11 heisenbug sem log"><g transform="translate(642,0)"><path class="background" aria-hidden="true" d="M0,0h157v176h-157Z" pointer-events="none"/><g><g class="mark-group role-legend-entry"><g transform="translate(0,18)"><path class="background" aria-hidden="true" d="M0,0h0v0h0Z" pointer-events="none"/><g><g class="mark-group role-scope" role="graphics-object" aria-roledescription="group mark container"><g transform="translate(0,0)"><path class="background" aria-hidden="true" d="M0,0h156.759765625v14h-156.759765625Z" pointer-events="none" opacity="1"/><g><g class="mark-symbol role-legend-symbol" pointer-events="none"><path transform="translate(6,6)" d="M5,0A5,5,0,1,1,-5,0A5,5,0,1,1,5,0" fill="#4c78a8" stroke="#4c78a8" stroke-width="1.5" opacity="1"/></g><g class="mark-text role-legend-label" pointer-events="none"><text text-anchor="start" transform="translate(16,10)" font-family="sans-serif" font-size="12px" fill="#000" opacity="1">01 sequencial</text></g></g><path class="foreground" aria-hidden="true" d="" pointer-events="none" display="none"/></g><g transform="translate(0,18)"><path class="background" aria-hidden="true" d="M0,0h156.759765625v14h-156.759765625Z" pointer-events="none" opacity="1"/><g><g class="mark-symbol role-legend-symbol" pointer-events="none"><path transform="translate(6,6)" d="M5,0A5,5,0,1,1,-5,0A5,5,0,1,1,5,0" fill="#f58518" stroke="#f58518" stroke-width="1.5" opacity="1"/></g><g class="mark-text role-legend-label" pointer-events="none"><text text-anchor="start" transform="translate(16,10)" font-family="sans-serif" font-size="12px" fill="#000" opacity="1">02 corrida sem thread</text></g></g><path class="foreground" aria-hidden="true" d="" pointer-events="none" display="none"/></g><g transform="translate(0,36)"><path class="background" aria-hidden="true" d="M0,0h156.759765625v14h-156.759765625Z" pointer-events="none" opacity="1"/><g><g class="mark-symbol role-legend-symbol" pointer-events="none"><path transform="translate(6,6)" d="M5,0A5,5,0,1,1,-5,0A5,5,0,1,1,5,0" fill="#e45756" stroke="#e45756" stroke-width="1.5" opacity="1"/></g><g class="mark-text role-legend-label" pointer-events="none"><text text-anchor="start" transform="translate(16,10)" font-family="sans-serif" font-size="12px" fill="#000" opacity="1">03 promise órfã</text></g></g><path class="foreground" aria-hidden="true" d="" pointer-events="none" display="none"/></g><g transform="translate(0,54)"><path class="background" aria-hidden="true" d="M0,0h156.759765625v14h-156.759765625Z" pointer-events="none" opacity="1"/><g><g class="mark-symbol role-legend-symbol" pointer-events="none"><path transform="translate(6,6)" d="M5,0A5,5,0,1,1,-5,0A5,5,0,1,1,5,0" fill="#72b7b2" stroke="#72b7b2" stroke-width="1.5" opacity="1"/></g><g class="mark-text role-legend-label" pointer-events="none"><text text-anchor="start" transform="translate(16,10)" font-family="sans-serif" font-size="12px" fill="#000" opacity="1">05 conexão compartilhada</text></g></g><path class="foreground" aria-hidden="true" d="" pointer-events="none" display="none"/></g><g transform="translate(0,72)"><path class="background" aria-hidden="true" d="M0,0h156.759765625v14h-156.759765625Z" pointer-events="none" opacity="1"/><g><g class="mark-symbol role-legend-symbol" pointer-events="none"><path transform="translate(6,6)" d="M5,0A5,5,0,1,1,-5,0A5,5,0,1,1,5,0" fill="#54a24b" stroke="#54a24b" stroke-width="1.5" opacity="1"/></g><g class="mark-text role-legend-label" pointer-events="none"><text text-anchor="start" transform="translate(16,10)" font-family="sans-serif" font-size="12px" fill="#000" opacity="1">08 saque em workers</text></g></g><path class="foreground" aria-hidden="true" d="" pointer-events="none" display="none"/></g><g transform="translate(0,90)"><path class="background" aria-hidden="true" d="M0,0h156.759765625v14h-156.759765625Z" pointer-events="none" opacity="1"/><g><g class="mark-symbol role-legend-symbol" pointer-events="none"><path transform="translate(6,6)" d="M5,0A5,5,0,1,1,-5,0A5,5,0,1,1,5,0" fill="#eeca3b" stroke="#eeca3b" stroke-width="1.5" opacity="1"/></g><g class="mark-text role-legend-label" pointer-events="none"><text text-anchor="start" transform="translate(16,10)" font-family="sans-serif" font-size="12px" fill="#000" opacity="1">09 deadlock</text></g></g><path class="foreground" aria-hidden="true" d="" pointer-events="none" display="none"/></g><g transform="translate(0,108)"><path class="background" aria-hidden="true" d="M0,0h156.759765625v14h-156.759765625Z" pointer-events="none" opacity="1"/><g><g class="mark-symbol role-legend-symbol" pointer-events="none"><path transform="translate(6,6)" d="M5,0A5,5,0,1,1,-5,0A5,5,0,1,1,5,0" fill="#b279a2" stroke="#b279a2" stroke-width="1.5" opacity="1"/></g><g class="mark-text role-legend-label" pointer-events="none"><text text-anchor="start" transform="translate(16,10)" font-family="sans-serif" font-size="12px" fill="#000" opacity="1">10 leitura suja</text></g></g><path class="foreground" aria-hidden="true" d="" pointer-events="none" display="none"/></g><g transform="translate(0,126)"><path class="background" aria-hidden="true" d="M0,0h156.759765625v14h-156.759765625Z" pointer-events="none" opacity="1"/><g><g class="mark-symbol role-legend-symbol" pointer-events="none"><path transform="translate(6,6)" d="M5,0A5,5,0,1,1,-5,0A5,5,0,1,1,5,0" fill="#ff9da6" stroke="#ff9da6" stroke-width="1.5" opacity="1"/></g><g class="mark-text role-legend-label" pointer-events="none"><text text-anchor="start" transform="translate(16,10)" font-family="sans-serif" font-size="12px" fill="#000" opacity="1">11 heisenbug com log</text></g></g><path class="foreground" aria-hidden="true" d="" pointer-events="none" display="none"/></g><g transform="translate(0,144)"><path class="background" aria-hidden="true" d="M0,0h156.759765625v14h-156.759765625Z" pointer-events="none" opacity="1"/><g><g class="mark-symbol role-legend-symbol" pointer-events="none"><path transform="translate(6,6)" d="M5,0A5,5,0,1,1,-5,0A5,5,0,1,1,5,0" fill="#9d755d" stroke="#9d755d" stroke-width="1.5" opacity="1"/></g><g class="mark-text role-legend-label" pointer-events="none"><text text-anchor="start" transform="translate(16,10)" font-family="sans-serif" font-size="12px" fill="#000" opacity="1">11 heisenbug sem log</text></g></g><path class="foreground" aria-hidden="true" d="" pointer-events="none" display="none"/></g></g></g><path class="foreground" aria-hidden="true" d="" pointer-events="none" display="none"/></g></g><g class="mark-text role-legend-title" pointer-events="none"><text text-anchor="start" transform="translate(0,10)" font-family="sans-serif" font-size="13px" font-weight="bold" fill="#000" opacity="1">cenário</text></g></g><path class="foreground" aria-hidden="true" d="" pointer-events="none" display="none"/></g></g><g class="mark-group role-title"><g transform="translate(-54.029296875,-26)"><path class="background" aria-hidden="true" d="M0,0h0v0h0Z" pointer-events="none"/><g><g class="mark-text role-title-text" role="graphics-symbol" aria-roledescription="title" aria-label="Title text 'Throughput por concorrência (média das repetições)'" pointer-events="none"><text text-anchor="start" transform="translate(0,13)" font-family="sans-serif" font-size="16px" font-weight="bold" fill="#000" opacity="1">Throughput por concorrência (média das repetições)</text></g></g><path class="foreground" aria-hidden="true" d="" pointer-events="none" display="none"/></g></g></g><path class="foreground" aria-hidden="true" d="" display="none"/></g></g></g></svg>